# xmcd
#
# Track frame offsets: 
#        150
#        83124
#        113289
#        143550
#        168289
#        195988
#
# Disc length: 3517 seconds
#
# Revision: 0
# Processed by: cddbd v1.5.2PL0 Copyright (c) Steve Scherf et al.
# Submitted via: ExactAudioCopy v0.99pb5
#
DISCID=390dbb06
DTITLE=송암스님 - 송암스님 범패 시리즈 6
DYEAR=1900
DGENRE=범패
TTITLE0=할향 - 홋소리 - 송암스님
TTITLE1=연향게 - 홋소리 - 송암스님
TTITLE2=할등 연등게 - 홋소리 평염불 - 송암스님
TTITLE3=할화 서찬게 - 홋소리 평염불 - 송암스님
TTITLE4=불찬 - 홋소리 - 송암스님
TTITLE5=대직찬 - 홋소리 - 송암스님
EXTD=
EXTT0=
EXTT1=
EXTT2=
EXTT3=
EXTT4=
EXTT5=
PLAYORDER=
